<svg xmlns="http://www.w3.org/2000/svg" viewBox="0 0 420 438">
<path fill="#059669" fill-rule="evenodd" d="
M 293.0,295.5 152.0,295.5 151.0,294.5 148.0,294.5 146.0,292.5 144.0,292.5 138.0,287.5 137.0,287.5 136.5,286.0 132.5,282.0 129.5,276.0 129.5,274.0 128.5,273.0 128.5,257.0 129.5,256.0 130.5,252.0 133.5,249.0 133.5,248.0 136.5,245.0 136.5,244.0 140.5,240.0 140.5,238.0 138.5,234.0 138.5,232.0 136.5,229.0 136.5,226.0 135.5,225.0 134.5,220.0 133.5,219.0 132.5,214.0 131.5,213.0 131.5,210.0 130.5,209.0 130.5,207.0 128.5,203.0 128.5,200.0 126.5,197.0 126.5,193.0 124.5,190.0 124.5,188.0 122.5,184.0 122.5,182.0 121.5,181.0 121.5,178.0 118.5,172.0 118.5,169.0 116.5,166.0 115.5,159.0 113.5,156.0 113.5,153.0 112.5,152.0 112.5,150.0 111.5,149.0 111.5,147.0 110.5,146.0 109.5,141.0 108.5,140.0 108.5,137.0 106.5,134.0 106.5,130.0 105.5,129.0 105.5,127.0 103.5,124.0 103.5,122.0 102.0,120.5 73.0,120.5 69.0,118.5 65.5,115.0 65.5,105.0 71.0,100.5 78.0,100.5 79.0,99.5 83.0,99.5 84.0,100.5 86.0,100.5 87.0,99.5 107.0,99.5 108.0,100.5 115.0,100.5 119.5,105.0 121.5,109.0 122.5,115.0 123.5,116.0 123.5,118.0 124.5,119.0 126.5,127.0 127.5,128.0 127.5,132.0 129.5,134.0 129.5,137.0 132.0,139.5 280.0,139.5 281.5,142.0 278.5,147.0 278.5,150.0 276.5,153.0 275.5,158.0 273.5,161.0 271.5,169.0 268.5,174.0 268.5,177.0 266.5,180.0 265.5,185.0 263.5,188.0 263.5,190.0 260.5,196.0 260.5,199.0 259.5,200.0 259.5,204.0 261.5,208.0 263.0,208.5 264.0,210.5 266.0,211.5 283.0,211.5 285.5,214.0 284.5,218.0 283.5,219.0 283.5,222.0 281.5,226.0 281.5,229.0 279.5,232.0 279.5,235.0 278.5,236.0 277.5,242.0 276.5,243.0 276.5,246.0 275.5,247.0 274.5,252.0 272.0,255.5 157.0,255.5 156.0,256.5 154.0,256.5 150.5,260.0 149.5,262.0 149.5,269.0 150.5,271.0 152.0,271.5 155.0,274.5 159.0,274.5 160.0,275.5 163.0,275.5 164.0,274.5 291.0,274.5 292.0,275.5 296.0,276.5 299.5,280.0 299.5,282.0 300.5,283.0 300.5,288.0 298.5,292.0 293.0,295.5 Z 
M 288.0,255.5 286.0,254.5 283.5,251.0 284.5,250.0 284.5,247.0 285.5,246.0 286.5,241.0 287.5,240.0 288.5,234.0 290.5,230.0 290.5,227.0 291.5,226.0 291.5,224.0 293.5,220.0 293.5,217.0 295.5,214.0 295.5,210.0 297.5,207.0 297.5,205.0 296.0,203.5 294.0,203.5 293.0,202.5 272.0,202.5 269.5,200.0 270.5,198.0 270.5,195.0 272.5,192.0 273.5,187.0 275.5,184.0 275.5,181.0 277.5,178.0 278.5,173.0 282.5,165.0 283.5,160.0 285.5,157.0 285.5,155.0 286.5,154.0 286.5,152.0 287.5,151.0 287.5,149.0 288.5,148.0 288.5,146.0 290.5,142.0 294.0,139.5 325.0,139.5 327.5,142.0 327.5,145.0 319.5,161.0 319.5,163.0 316.5,167.0 316.5,169.0 312.5,176.0 312.5,178.0 342.0,178.5 344.5,181.0 344.5,184.0 336.5,194.0 336.5,195.0 333.5,198.0 333.5,199.0 329.5,203.0 329.5,204.0 326.5,207.0 326.5,208.0 322.5,212.0 322.5,213.0 319.5,216.0 319.5,217.0 313.5,224.0 313.5,225.0 309.5,229.0 309.5,230.0 306.5,233.0 306.5,234.0 303.5,237.0 303.5,238.0 299.5,242.0 299.5,243.0 296.5,246.0 296.5,247.0 293.5,250.0 293.5,251.0 288.0,255.5 Z 
M 179.0,342.5 171.0,342.5 170.0,341.5 165.0,340.5 158.5,334.0 156.5,330.0 156.5,326.0 155.5,324.0 156.5,323.0 156.5,316.0 157.5,314.0 161.0,309.5 162.0,309.5 165.0,306.5 167.0,306.5 170.0,304.5 180.0,304.5 186.0,307.5 190.5,312.0 193.5,318.0 193.5,328.0 192.5,329.0 192.5,331.0 190.5,335.0 184.0,340.5 182.0,340.5 179.0,342.5 Z 
M 268.0,342.5 261.0,342.5 260.0,341.5 255.0,340.5 247.5,333.0 247.5,331.0 245.5,327.0 245.5,319.0 247.5,316.0 247.5,314.0 250.5,311.0 251.0,309.5 252.0,309.5 255.0,306.5 259.0,304.5 270.0,304.5 276.0,307.5 280.5,312.0 283.5,318.0 283.5,328.0 281.5,331.0 281.5,333.0 278.5,336.0 278.5,337.0 277.0,337.5 274.0,340.5 272.0,340.5 268.0,342.5 Z 
" />
</svg>
